<?xml version="1.0" encoding="UTF-8" standalone="no"?>
<!DOCTYPE svg PUBLIC "-//W3C//DTD SVG 1.1//EN" "http://www.w3.org/Graphics/SVG/1.1/DTD/svg11.dtd">
<svg width="100%" height="100%" viewBox="0 0 256 256" version="1.1" xmlns="http://www.w3.org/2000/svg" xmlns:xlink="http://www.w3.org/1999/xlink" xml:space="preserve" xmlns:serif="http://www.serif.com/" style="fill-rule:evenodd;clip-rule:evenodd;stroke-linejoin:round;stroke-miterlimit:2;">
    <rect x="0" y="0" width="256" height="256" style="fill:url(#_Linear1);"/>
    <g transform="matrix(0.165845,0,0,0.165845,45.0773,45.0773)">
        <path d="M748.9,338.3C713.6,338.3 679.3,348.8 646,369.7C612.7,390.6 586.5,412.2 567.6,434.4C548.7,456.6 521.5,490.6 486.3,536.3C454.9,576.8 430.4,607.5 412.8,628.4C395.2,649.3 369.7,674.5 336.4,703.9C303.1,733.3 268.1,754.9 231.5,768.6C194.9,782.3 155.1,789.2 111.9,789.2L10,789.2L10,651.9L111.9,651.9C147.2,651.9 181.8,641.4 215.8,620.5C249.8,599.6 276.2,578 295.2,555.8C314.1,533.6 341.3,499.6 376.5,453.9C417,400.3 450,359.2 475.5,330.4C501,301.7 538.9,272.9 589.2,244.2C639.5,215.5 692.8,201.1 748.9,201.1L784.2,201.1L784.2,83.5L990,259.9L784.2,436.3L784.2,338.3L748.9,338.3M274.6,424.5C226.3,373.5 172,348.1 111.9,348.1L10,348.1L10,210.9L111.9,210.9C203.4,210.9 286.3,246.2 360.8,316.7C351.7,327.2 339.6,341.9 324.5,360.8C309.5,379.7 300.7,390.5 298,393.1C292.9,401 285.1,411.5 274.6,424.5M784.2,661.7L784.2,563.7L990,740.1L784.2,916.5L784.2,798.9L748.9,798.9C657.4,798.9 572.5,761 494.1,685.2C524.2,647.3 547.7,617.3 564.7,595C564.7,593.7 566.7,590.8 570.6,586.2C574.5,581.6 577.1,578 578.4,575.4C633.3,632.9 690.1,661.6 748.9,661.6L784.2,661.6L784.2,661.7" style="fill:white;fill-rule:nonzero;"/>
    </g>
    <defs>
        <linearGradient id="_Linear1" x1="0" y1="0" x2="1" y2="0" gradientUnits="userSpaceOnUse" gradientTransform="matrix(256,256,-256,256,7.10543e-15,0)"><stop offset="0" style="stop-color:black;stop-opacity:1"/><stop offset="1" style="stop-color:rgb(0,0,128);stop-opacity:1"/></linearGradient>
    </defs>
</svg>