<?xml version="1.0" encoding="UTF-8" standalone="no"?>
<!DOCTYPE svg PUBLIC "-//W3C//DTD SVG 1.1//EN" "http://www.w3.org/Graphics/SVG/1.1/DTD/svg11.dtd">
<svg width="100%" height="100%" viewBox="0 0 328 650" version="1.1" xmlns="http://www.w3.org/2000/svg" xmlns:xlink="http://www.w3.org/1999/xlink" xml:space="preserve" xmlns:serif="http://www.serif.com/" style="fill-rule:evenodd;clip-rule:evenodd;stroke-linejoin:round;stroke-miterlimit:1.41421;">
    <g transform="matrix(1,0,0,1,-155.753,-20.0142)">
        <path id="path2818" d="M191.806,319.695L191.548,20.014C216.262,163.969 292.597,187.029 295.561,218.771C256.612,182.557 226.566,232.077 256.428,287.77C286.347,343.57 347.122,313.978 310.751,238.853C350.251,244.6 378.553,297.904 374.343,335.657C368.328,319.059 343.315,322.471 344.735,347.5C346.156,372.529 376.349,370.631 389.533,368.611C402.717,366.592 414.981,356.463 429.834,335.674C447.631,310.762 460.837,252.184 419.141,192.768C521.425,269.885 471.386,383.045 464.453,409.805L376.403,409.547L366.104,426.797L457.759,426.539L451.323,440.7L359.925,440.7L349.627,456.919L442.054,457.177C410.665,517.315 346.92,570.748 286.808,600.066C317.805,567.874 328.251,508.395 292.729,497.598C257.207,486.8 186.046,562.394 195.153,669.579C149.749,620.269 136.633,500.62 193.35,429.371C210.391,446.543 240.767,456.458 256.685,438.125C272.603,419.792 267.903,383.12 257.2,360.888C246.497,338.655 220.567,316.285 191.806,319.695ZM250.249,385.604C250.249,385.609 250.249,385.614 250.249,385.618C250.249,401.013 237.116,413.681 221.156,413.681C205.196,413.681 192.063,401.013 192.063,385.618C192.063,385.614 192.063,385.609 192.063,385.604C192.063,385.599 192.063,385.594 192.063,385.589C192.063,370.194 205.196,357.526 221.156,357.526C237.116,357.526 250.249,370.194 250.249,385.589C250.249,385.594 250.249,385.599 250.249,385.604Z" style="fill:white;fill-rule:nonzero;"/>
    </g>
</svg>