<?xml version="1.0" encoding="UTF-8" standalone="no"?>
<!DOCTYPE svg PUBLIC "-//W3C//DTD SVG 1.1//EN" "http://www.w3.org/Graphics/SVG/1.1/DTD/svg11.dtd">
<svg width="100%" height="100%" viewBox="0 0 512 393" version="1.1" xmlns="http://www.w3.org/2000/svg" xmlns:xlink="http://www.w3.org/1999/xlink" xml:space="preserve" xmlns:serif="http://www.serif.com/" style="fill-rule:evenodd;clip-rule:evenodd;stroke-linejoin:round;stroke-miterlimit:1.41421;">
    <g transform="matrix(1,0,0,1,-6,-7.4)">
        <g transform="matrix(42.6667,0,0,42.6667,-250,-308.333)">
            <path d="M18,12.5L8,12.5L8,11.5L18,11.5L18,12.5ZM18,16.5L8,16.5L8,15.5L18,15.5L18,16.5ZM18,8.5L8,8.5L8,7.5L18,7.5L18,8.5ZM6.6,8.6C6.269,8.6 6,8.331 6,8C6,7.669 6.269,7.4 6.6,7.4C6.931,7.4 7.2,7.669 7.2,8C7.2,8.331 6.931,8.6 6.6,8.6ZM6.6,12.6C6.269,12.6 6,12.331 6,12C6,11.669 6.269,11.4 6.6,11.4C6.931,11.4 7.2,11.669 7.2,12C7.2,12.331 6.931,12.6 6.6,12.6ZM6.6,16.6C6.269,16.6 6,16.331 6,16C6,15.669 6.269,15.4 6.6,15.4C6.931,15.4 7.2,15.669 7.2,16C7.2,16.331 6.931,16.6 6.6,16.6Z" style="fill:white;fill-rule:nonzero;"/>
        </g>
    </g>
</svg>