<?xml version="1.0" encoding="UTF-8" standalone="no"?>
<!DOCTYPE svg PUBLIC "-//W3C//DTD SVG 1.1//EN" "http://www.w3.org/Graphics/SVG/1.1/DTD/svg11.dtd">
<svg width="100%" height="100%" viewBox="0 0 517 506" version="1.1" xmlns="http://www.w3.org/2000/svg" xmlns:xlink="http://www.w3.org/1999/xlink" xml:space="preserve" xmlns:serif="http://www.serif.com/" style="fill-rule:evenodd;clip-rule:evenodd;stroke-linejoin:round;stroke-miterlimit:1.41421;">
    <g transform="matrix(1,0,0,1,-41.0351,-39.4688)">
        <path id="path2818" d="M299.884,102.384L287.52,126.112L255.276,126.136L299.682,39.469L344.04,125.935L311.57,126.16L299.884,102.384L299.884,102.384Z" style="fill:white;fill-rule:nonzero;"/>
        <path id="path2820" d="M340.656,153.813C345.555,156.318 354.682,160.457 362.375,166.344C369.492,171.789 373.119,176.666 377.719,181.813C382.319,186.959 385.931,192.749 387.5,196.594C389.069,200.439 390.643,208.025 385.563,208C380.482,207.975 374.593,190.362 356.719,193.688C362.943,196.847 370.422,204.342 370.063,212.844C367.338,209.325 361.761,207.283 355.563,208.969C363.195,213.547 365.656,233.16 354.531,235.844C343.17,238.584 336.082,230.588 330.719,222.344C325.356,214.099 330.022,193.66 317,186.25C303.978,178.84 278.373,181.267 270.281,194.781C256.557,195.089 244.864,207.676 254.938,225.031C260.182,208.401 272.83,217.198 272.094,225.125C271.357,233.052 262.125,240.808 247.75,236.875C233.375,232.942 237.618,213.578 245.25,209C239.052,207.314 233.444,209.356 230.719,212.875C230.359,204.373 237.869,196.878 244.094,193.719C226.219,190.393 220.331,208.006 215.25,208.031C210.169,208.057 211.743,200.47 213.313,196.625C214.882,192.78 218.494,186.99 223.094,181.844C227.694,176.697 231.321,171.821 238.438,166.375C246.131,160.488 255.258,156.349 260.156,153.844L107.813,153.844L84.406,209.781C113.622,188.566 146.965,189.728 148.281,218.281C149.598,246.834 128.749,250.543 108.406,250.031L108.594,324.937C119.266,303.115 130.812,286.953 143.25,279.187C155.488,271.547 165.699,269.264 174.219,273.844C182.739,278.424 187.254,300.262 158.531,331.156L194.156,361.156C199.926,337.307 208.56,325.036 217.656,318.594C224.735,313.58 230.23,311.889 235.75,314.875C241.27,317.861 241.948,327.293 238.406,336.187C234.666,345.582 223.563,362.312 223.563,362.312C229.392,362.312 229.741,374.97 210.969,376.625C192.196,378.28 181.266,380.453 175.75,393.281C170.264,406.04 171.39,420.324 185.625,428.125C183.297,412.567 193.712,398.77 203.25,398.125C212.788,397.48 215.11,402.926 216.344,407.344C217.532,411.596 215.053,417.054 210.406,420.375C226.27,422.95 228.63,413.435 228.594,404.687C228.558,395.94 233.692,400.359 232.656,404.312C236.51,400.487 241.841,395.555 247.75,390.187L177.688,545.219C221.645,513.717 249.859,525.86 273.688,530.719L300.219,471.094L300.594,471.063L327.094,530.688C350.923,525.829 379.168,513.686 423.125,545.188L353.031,390.156C358.94,395.523 364.303,400.455 368.156,404.281C367.12,400.328 372.255,395.909 372.219,404.656C372.183,413.404 374.543,422.918 390.406,420.344C385.76,417.022 383.281,411.565 384.469,407.313C385.703,402.895 388.024,397.449 397.563,398.094C407.101,398.739 417.515,412.536 415.188,428.094C429.422,420.293 430.549,406.009 425.063,393.25C419.546,380.422 408.585,378.249 389.813,376.594C371.04,374.939 371.421,362.281 377.25,362.281C377.25,362.281 366.147,345.551 362.406,336.156C358.865,327.262 359.512,317.83 365.031,314.844C370.551,311.858 376.077,313.549 383.156,318.563C392.252,325.004 400.887,337.276 406.656,361.125L442.281,331.125C413.558,300.231 418.074,278.393 426.594,273.813C435.114,269.232 445.293,271.515 457.531,279.156C469.969,286.922 481.547,303.084 492.219,324.906L492.406,250C472.063,250.512 451.215,246.803 452.531,218.25C453.848,189.697 487.191,188.535 516.406,209.75L493,153.813L340.656,153.813Z" style="fill:white;fill-rule:nonzero;"/>
        <path id="path2822" d="M41.035,541.157L133.146,364.403L157.874,378.815L89.038,512.51L151.204,512.51L138.59,540.383L41.035,541.157Z" style="fill:white;fill-rule:nonzero;"/>
        <path id="path2822-0" d="M557.169,540.877L465.058,364.123L440.331,378.535L509.166,512.23L447,512.23L459.614,540.103L557.169,540.877Z" style="fill:white;fill-rule:nonzero;"/>
    </g>
</svg>