<?xml version="1.0" encoding="UTF-8" standalone="no"?>
<!DOCTYPE svg PUBLIC "-//W3C//DTD SVG 1.1//EN" "http://www.w3.org/Graphics/SVG/1.1/DTD/svg11.dtd">
<svg width="100%" height="100%" viewBox="0 0 709 788" version="1.1" xmlns="http://www.w3.org/2000/svg" xmlns:xlink="http://www.w3.org/1999/xlink" xml:space="preserve" xmlns:serif="http://www.serif.com/" style="fill-rule:evenodd;clip-rule:evenodd;stroke-linejoin:round;stroke-miterlimit:1.41421;">
    <g transform="matrix(1,0,0,1,-16.0343,-51.6621)">
        <path id="path2999" d="M413.859,66.735C446.725,82.445 497.267,119.518 515.29,148.036C533.313,176.554 535.992,204.134 535.992,204.134C535.992,204.134 504.873,197.477 491.149,209.576C477.425,221.675 475.892,252.648 490.426,266.64C504.961,280.633 535.627,278.128 546.441,265.656C557.256,253.184 567.211,240.217 575.12,207.59C583.029,174.962 575.755,145.636 564.128,116.96C570.268,118.277 578.1,124.16 588.844,138.245C599.589,152.331 618.099,186.1 626.045,208.492C633.99,230.885 638.685,251.742 637.963,277.656C637.241,303.57 634.538,306.319 634.538,306.319C634.538,306.319 616.835,296.952 605.639,297.881C593.977,298.848 576.371,302.548 571.328,325.149C566.284,347.75 584.43,363.869 605.405,364.284C626.379,364.699 646.827,338.772 657.285,322.26C667.744,305.748 675.31,261.8 676.066,252.735C683.112,264.362 687.443,297.52 686.179,331.65C684.915,365.78 681.664,380.859 674.621,401.536C667.579,422.213 665.314,419.003 665.314,419.003C665.314,419.003 647.195,409.779 635.767,410.805C624.339,411.83 608.151,421.423 607.315,435.67C606.479,449.916 613.962,472.022 646.812,468.532C679.661,465.042 705.65,416.942 724.077,379.009C724.077,379.009 724.07,417.817 709.832,463.944C695.594,510.071 671.764,559.048 628.605,612.14C595.197,653.313 530.321,704.824 521.848,713.327C509.865,709.106 437.425,688.392 394.537,666.09C351.648,643.788 336.565,632.215 310.566,603.97C284.567,575.725 273.252,549.375 272.824,506.455C272.395,463.534 286.367,431.605 316.913,408.296C347.458,384.988 399.103,381.019 422.241,410.874C445.379,440.729 439.953,471.123 432.974,486.152C425.996,501.18 404.519,516.903 404.519,516.903C416.01,490.384 410.921,453.845 369.978,457.517C329.034,461.188 325.154,502.881 335.355,529.494C345.501,555.963 410.542,587.364 460.63,546.364C510.719,505.363 512.944,441.135 488.26,392.687C463.575,344.239 413.867,313.725 362.212,323.163C310.558,332.601 255.377,376.211 236.707,415.26C218.037,454.31 209.981,471.422 212.509,520.721C215.037,570.02 254.585,646.768 293.952,680.718C333.319,714.667 354.656,734.687 392.759,750.307C430.862,765.927 433.543,765.05 433.543,765.05C388.592,821.629 299.601,838.673 270.155,839.039C240.708,839.405 216.173,838.337 187.296,830.636C158.039,822.832 139.679,814.264 123.185,799.564C106.692,784.865 96.525,763.063 96.525,763.063C96.525,763.063 114.817,783.642 136.122,792.449C157.428,801.255 190.853,810.502 225.511,794.485C260.169,778.468 275.745,731.736 238.278,696.348C219.726,682.184 199.136,677.526 178.129,686.161C157.121,694.795 146.1,724.747 166.265,755.036C158.98,750.664 157.78,751.064 144.429,735.254C130.885,718.46 118.064,688.573 118.064,670.063C118.064,651.553 121.749,647.333 121.749,647.333C121.749,647.333 155.708,670.443 171.054,637.353C186.399,604.264 148.312,583.835 130.344,588.62C112.375,593.406 106.068,604.093 96.573,623.086C87.078,642.079 83.066,667.071 83.314,690.961C79.547,684.38 76.801,675.571 72.738,659.048C68.674,642.524 67.893,628.177 67.393,614.534C66.893,600.891 67.178,593.691 69.314,570.637C71.45,547.583 74.413,546.925 74.413,546.925C87.643,559.952 102.828,557.156 116.566,553.639C130.303,550.122 141.448,535.995 140.173,519.02C138.897,502.046 127.776,486.639 97.116,487.493C66.456,488.349 43.441,528.185 31.564,557.921C29.606,550.462 30.211,513.121 40.956,483.235C51.701,453.348 73.461,423.8 80.013,418.974C81.561,424.677 80.98,424.135 89.738,433.887C98.496,443.638 118.363,448.358 131.118,441.651C143.873,434.944 155.793,415.288 148.299,400.661C140.805,386.034 126.859,373.894 106.376,374.241C85.892,374.588 59.157,387.678 39.744,407.723C20.331,427.768 16.034,432.777 16.034,432.777C16.034,432.777 24.846,390.997 44.925,364.933C65.005,338.87 83.248,321.011 103.744,310.808C124.241,300.605 142.058,296.534 142.058,296.534C142.058,296.534 131.941,331.728 146.777,339.957C161.612,348.186 173.995,347.449 188.803,340.677C203.611,333.905 206.445,311.461 198.706,294.421C190.966,277.381 162.307,268.627 137.025,263.39C111.743,258.153 92.06,259.959 70.39,264.653C48.72,269.349 47.994,272.219 47.994,272.219C47.994,272.219 73.074,243.74 109.672,225.497C146.975,206.903 163.158,206.017 196.204,205.837C229.251,205.656 241.433,212.616 241.433,212.616C241.433,213.288 235.712,220.621 231.919,231.451C228.127,242.282 230.278,255.081 245.737,265.914C261.197,276.747 292.69,268.752 298.7,248.838C304.711,228.925 298.279,205.523 287.87,183.238C274.642,157.98 247.946,145.187 229.786,138.324C211.626,131.461 192.929,129.802 171.95,126.847C171.95,126.847 233.431,113.882 275.24,118.408C317.049,122.934 331.465,127.096 354.571,141.183C377.677,155.27 385.974,169.951 385.974,169.951C385.974,169.951 372.436,168.52 357.667,177.769C342.899,187.018 338.984,211.846 350.706,226.263C362.428,240.681 395.729,245.057 420.902,213.548C446.075,182.039 442.46,123.502 419.519,97.003C396.578,70.504 383.327,58.125 374.253,51.666C374.253,51.666 380.993,51.023 413.859,66.734L413.859,66.735Z" style="fill:white;fill-rule:nonzero;"/>
    </g>
</svg>