<?xml version="1.0" encoding="UTF-8" standalone="no"?>
<!DOCTYPE svg PUBLIC "-//W3C//DTD SVG 1.1//EN" "http://www.w3.org/Graphics/SVG/1.1/DTD/svg11.dtd">
<svg width="100%" height="100%" viewBox="0 0 512 512" version="1.1" xmlns="http://www.w3.org/2000/svg" xmlns:xlink="http://www.w3.org/1999/xlink" xml:space="preserve" xmlns:serif="http://www.serif.com/" style="fill-rule:evenodd;clip-rule:evenodd;stroke-linejoin:round;stroke-miterlimit:2;">
    <g transform="matrix(26.947,0,0,26.947,-0.0065802,-13.4735)">
        <path d="M18.9,7.2L15.9,3.2C15.823,3.097 15.709,3.028 15.582,3.007L9.582,2.007C9.528,1.998 9.472,1.998 9.418,2.007L3.418,3.007C3.291,3.028 3.177,3.097 3.1,3.2L0.1,7.2C-0.043,7.391 -0.031,7.657 0.128,7.834L9.128,17.834C9.223,17.939 9.358,18 9.5,18C9.642,18 9.777,17.94 9.872,17.834L18.872,7.834C19.032,7.656 19.044,7.391 18.9,7.2ZM12.786,7L9.5,16.037L6.214,7L12.786,7ZM6.707,6L9.5,3.207L12.293,6L6.707,6ZM10.957,3.25L14.655,3.866L13.422,5.715L10.956,3.25L10.957,3.25ZM5.578,5.715L4.345,3.866L8.043,3.25L5.578,5.715ZM4.67,6.156L1.685,6.753L3.476,4.365L4.67,6.156ZM5.177,7.075L8.151,15.254L1.459,7.818L5.177,7.074L5.177,7.075ZM13.823,7.075L17.541,7.819L10.849,15.255L13.823,7.076L13.823,7.075ZM14.33,6.156L15.524,4.365L17.315,6.753L14.33,6.156Z" style="fill:white;fill-rule:nonzero;"/>
    </g>
</svg>
