<?xml version="1.0" encoding="UTF-8" standalone="no"?>
<!DOCTYPE svg PUBLIC "-//W3C//DTD SVG 1.1//EN" "http://www.w3.org/Graphics/SVG/1.1/DTD/svg11.dtd">
<svg width="100%" height="100%" viewBox="0 0 479 479" version="1.1" xmlns="http://www.w3.org/2000/svg" xmlns:xlink="http://www.w3.org/1999/xlink" xml:space="preserve" xmlns:serif="http://www.serif.com/" style="fill-rule:evenodd;clip-rule:evenodd;stroke-linejoin:round;stroke-miterlimit:1.41421;">
    <g>
        <path d="M259.5,0.001C274,0.001 286.3,10.401 288.7,24.701L294.3,57.901C306,61.401 317.3,66.101 328.1,71.801L355.9,52.001C360.9,48.401 366.8,46.501 373,46.501C380.9,46.501 388.3,49.601 393.9,55.201L423.7,85.001C434,95.201 435.3,111.301 426.9,123.101L407.1,150.801C412.6,161.201 417.1,172.101 420.6,183.401L454.2,189.101C468.5,191.501 478.9,203.801 478.7,218.301L478.7,260.401C478.7,274.901 468.3,287.201 454,289.601L420.4,295.201C417,306.401 412.4,317.301 406.9,327.801L426.7,355.601C435.1,367.401 433.7,383.501 423.5,393.701L393.7,423.501C388.1,429.101 380.7,432.201 372.8,432.201C366.6,432.201 360.6,430.301 355.6,426.701L327.9,406.901C317.5,412.401 306.6,416.901 295.3,420.401L289.6,454.001C287.2,468.301 274.9,478.701 260.4,478.701L218.2,478.701C203.7,478.701 191.4,468.301 189,454.001L183.4,420.401C172.5,417.001 161.9,412.701 151.8,407.401L123.7,427.401C118.7,431.001 112.8,432.901 106.6,432.901C98.7,432.901 91.3,429.801 85.7,424.201L55.9,394.401C45.6,384.201 44.3,368.101 52.7,356.301L72.4,328.901C66.8,318.501 62.2,307.601 58.7,296.401L24.7,290.601C10.4,288.201 0,275.901 0,261.401L0,219.301C0,204.801 10.4,192.501 24.7,190.101L57.9,184.501C61.3,173.201 65.7,162.301 71.2,151.801L51.2,123.701C42.8,111.901 44.2,95.801 54.4,85.601L84.3,55.801C89.8,50.201 97.3,47.101 105.2,47.101C111.4,47.101 117.4,49.001 122.4,52.601L149.9,72.401C160.3,66.801 171.2,62.201 182.4,58.701L188.2,24.701C190.6,10.401 202.9,0.001 217.4,0.001L259.5,0.001ZM452,260.401L452,218.301C452,217.001 451.1,215.901 449.8,215.701L407.8,208.601C402.6,207.801 398.3,203.901 397,198.701C393.2,184.001 387.4,169.901 379.6,156.801C376.9,152.201 377.1,146.401 380.2,142.101L404.9,107.401C405.6,106.301 405.5,104.901 404.6,104.001L374.8,74.201C374.1,73.501 373.3,73.401 372.9,73.401C372.4,73.401 371.9,73.601 371.4,73.901L336.9,98.701C332.5,101.801 326.8,102.001 322.2,99.301C308.8,91.401 294.4,85.501 279.3,81.701C274.1,80.401 270.2,76.101 269.3,70.801L262.3,29.101C262.1,27.801 261,26.901 259.7,26.901L217.6,26.901C216.3,26.901 215.2,27.801 215,29.101L207.8,71.401C206.9,76.601 203,80.801 197.9,82.201C183.2,86.001 169.1,92.001 156.1,99.801C151.5,102.501 145.7,102.301 141.3,99.201L106.8,74.601C106.4,74.301 105.9,74.101 105.3,74.101C104.8,74.101 104.1,74.201 103.4,74.901L73.6,104.701C72.7,105.601 72.6,107.101 73.3,108.101L98.2,143.101C101.3,147.401 101.6,153.101 98.9,157.701C91.2,170.801 85.5,185.001 81.8,199.701C80.5,204.901 76.2,208.801 70.9,209.701L29.2,216.701C27.9,216.901 27,218.001 27,219.301L27,261.401C27,262.701 27.9,263.801 29.2,264.001L71.5,271.201C76.7,272.101 80.9,276.001 82.3,281.101C86.1,295.801 92.1,309.901 99.9,322.901C102.6,327.501 102.4,333.301 99.3,337.701L74.7,372.201C74,373.301 74.1,374.701 75,375.601L104.8,405.401C105.5,406.101 106.3,406.201 106.7,406.201C107.2,406.201 107.7,406.001 108.2,405.701L143.2,380.801C145.5,379.101 148.3,378.301 151,378.301C153.3,378.301 155.7,378.901 157.8,380.101C170.7,387.501 184.5,393.201 198.8,396.901C203.9,398.201 207.8,402.401 208.7,407.701L215.7,449.701C215.9,451.001 217,451.901 218.3,451.901L260.4,451.901C261.701,451.901 262.8,451.001 263,449.701L270.1,407.701C270.9,402.501 274.8,398.201 280,396.901C294.7,393.101 308.8,387.301 321.9,379.501C326.5,376.801 332.3,377.001 336.6,380.101L371.3,404.801C371.7,405.101 372.2,405.301 372.8,405.301C373.3,405.301 374,405.201 374.7,404.501L404.5,374.701C405.4,373.801 405.5,372.301 404.8,371.301L380.1,336.501C377,332.101 376.8,326.401 379.5,321.801C387.3,308.701 393.1,294.601 396.9,279.901C398.2,274.801 402.4,270.901 407.7,270.001L449.7,263.001C451,262.801 451.9,261.701 451.9,260.401L452,260.401ZM239.4,136.001C182.4,136.001 136.1,182.301 136.1,239.301C136.1,296.301 182.4,342.601 239.4,342.601C296.4,342.601 342.7,296.301 342.7,239.301C342.7,182.301 296.4,136.001 239.4,136.001ZM239.4,315.601C197.3,315.601 163.1,281.401 163.1,239.301C163.1,197.201 197.3,163.001 239.4,163.001C281.5,163.001 315.7,197.201 315.7,239.301C315.7,281.401 281.5,315.601 239.4,315.601Z" style="fill:white;fill-rule:nonzero;"/>
    </g>
</svg>