<?xml version="1.0" encoding="UTF-8" standalone="no"?>
<!DOCTYPE svg PUBLIC "-//W3C//DTD SVG 1.1//EN" "http://www.w3.org/Graphics/SVG/1.1/DTD/svg11.dtd">
<svg width="100%" height="100%" viewBox="0 0 464 512" version="1.1" xmlns="http://www.w3.org/2000/svg" xmlns:xlink="http://www.w3.org/1999/xlink" xml:space="preserve" xmlns:serif="http://www.serif.com/" style="fill-rule:evenodd;clip-rule:evenodd;stroke-linejoin:round;stroke-miterlimit:1.41421;">
    <g transform="matrix(16,0,0,16,-48,1.33227e-15)">
        <path d="M3,17.7C3,25.6 9.5,32 17.5,32C25.5,32 32,25.6 32,17.7C32,9.8 25.5,3.4 17.5,3.4L17.4,3.4L17.4,0L12,5.4L17.4,10.8L17.4,7.4L17.5,7.4C23.3,7.3 28,12 28,17.7C28,23.4 23.3,28 17.5,28C11.7,28 7,23.4 7,17.7C7,16.6 7.2,15.5 7.6,14.4L4.5,11.3C3.5,13.3 3,15.4 3,17.7Z" style="fill:white;fill-rule:nonzero;"/>
    </g>
</svg>