<?xml version="1.0" encoding="UTF-8" standalone="no"?>
<!DOCTYPE svg PUBLIC "-//W3C//DTD SVG 1.1//EN" "http://www.w3.org/Graphics/SVG/1.1/DTD/svg11.dtd">
<svg width="100%" height="100%" viewBox="0 0 512 512" version="1.1" xmlns="http://www.w3.org/2000/svg" xmlns:xlink="http://www.w3.org/1999/xlink" xml:space="preserve" xmlns:serif="http://www.serif.com/" style="fill-rule:evenodd;clip-rule:evenodd;stroke-linejoin:round;stroke-miterlimit:1.41421;">
    <g transform="matrix(0.522449,0,0,0.522449,-5.22449,-5.22449)">
        <path d="M500,10C229.4,10 10,229.4 10,500C10,770.6 229.4,990 500,990C770.6,990 990,770.6 990,500C990,229.4 770.6,10 500,10ZM722.7,661.6L661.6,722.7L500,561.1L338.3,722.8L277.2,661.7L438.9,500L277.3,338.3L338.4,277.2L500,438.9L661.7,277.2L722.8,338.3L561.1,500L722.7,661.6Z" style="fill:white;fill-rule:nonzero;"/>
    </g>
</svg>